<?xml version="1.0" encoding="utf-8"?>
<!-- Generator: Adobe Illustrator 27.5.0, SVG Export Plug-In . SVG Version: 6.00 Build 0)  -->
<svg version="1.1" xmlns="http://www.w3.org/2000/svg" xmlns:xlink="http://www.w3.org/1999/xlink" x="0px" y="0px"
	 viewBox="0 0 500 500" style="enable-background:new 0 0 500 500;" xml:space="preserve">
<g id="Background_Simple">
	<g>
		<path style="fill:#92E3A9;" d="M480.547,186.687c-1.746-21.697-1.94-40.912-10.759-61.464
			c-7.081-16.502-14.952-33.199-25.751-47.648c-32.972-44.115-84.59-63.779-138.334-65.782
			C217.584,8.509,131.795,64.816,102.336,148.37c-4.757,13.494-12.585,24.865-21.44,35.58c-0.921-0.558-1.448-2.057-1.449-4.647
			c-0.002-23.064-26.065,2.726-30.149,9.009C-3.547,269.592,7.825,403.24,95.896,455.206
			c36.167,21.341,76.248,31.591,117.843,34.922c37.832,3.03,78.813-2.68,107.355-29.876c24.714-23.549,33.147-58.519,53.806-84.399
			c-1.655,3.288-5.827,12.69-5.764,23.797c0.079,13.847,35.01,8.29,70.734-52.839C473.385,289.463,484.54,236.307,480.547,186.687z"
			/>
		<path style="opacity:0.7;fill:#FFFFFF;" d="M480.547,186.687c-1.746-21.697-1.94-40.912-10.759-61.464
			c-7.081-16.502-14.952-33.199-25.751-47.648c-32.972-44.115-84.59-63.779-138.334-65.782
			C217.584,8.509,131.795,64.816,102.336,148.37c-4.757,13.494-12.585,24.865-21.44,35.58c-0.921-0.558-1.448-2.057-1.449-4.647
			c-0.002-23.064-26.065,2.726-30.149,9.009C-3.547,269.592,7.825,403.24,95.896,455.206
			c36.167,21.341,76.248,31.591,117.843,34.922c37.832,3.03,78.813-2.68,107.355-29.876c24.714-23.549,33.147-58.519,53.806-84.399
			c-1.655,3.288-5.827,12.69-5.764,23.797c0.079,13.847,35.01,8.29,70.734-52.839C473.385,289.463,484.54,236.307,480.547,186.687z"
			/>
	</g>
</g>
<g id="Plants_2">
	<g>
		<path style="fill:#263238;" d="M448.429,380.01c0.072,0.034,0.776-5.178,0.783-5.512c0.077-3.865-2.045-11.379-6.139-12.788
			c-2.948-1.016-5.874,0.975-6.558,3.888c-0.699,2.975,1.033,6.318,2.878,8.54C441.558,376.746,448.424,380.007,448.429,380.01z"/>
		<path style="fill:#263238;" d="M371.908,387.425c3.245,0.981,10.771-0.086,10.777-0.087c0.078-0.011-2.209-4.747-2.387-5.029
			c-2.068-3.266-7.983-8.362-12.175-7.28c-3.02,0.78-4.361,4.054-3.325,6.862C365.856,384.756,369.144,386.589,371.908,387.425z"/>
		<path style="fill:#263238;" d="M410.891,445.802c0.724,1.343,1.451,2.686,2.091,4.021c0.417,0.921,0.882,1.778,1.249,2.727
			c0.384,0.931,0.763,1.852,1.139,2.765c0.659,1.784,1.35,3.622,1.949,5.379c0.426,1.218,0.81,2.388,1.199,3.565
			c-0.781-1.284-2.363-3.767-2.518-3.959c-2.429-3.007-8.891-7.39-12.931-5.833c-2.91,1.122-3.867,4.528-2.514,7.198
			c1.381,2.726,4.858,4.169,7.7,4.682c3.128,0.564,9.712-1.074,10.534-1.285c0.638,1.95,1.24,3.852,1.779,5.656
			c0.966,3.204,1.783,6.14,2.47,8.747h2.874c-0.794-2.796-1.751-5.993-2.895-9.512c-0.64-1.982-1.363-4.088-2.126-6.243
			c0.478-0.259,3.192-1.751,5.55-3.463c2.483,2.121,8.453,4.239,9.225,4.508c-0.543,1.978-1.091,3.897-1.636,5.699
			c-1.006,3.353-1.987,6.374-2.885,9.011h2.903c0.774-2.479,1.601-5.246,2.446-8.299c0.56-2.006,1.118-4.161,1.67-6.38
			c0.829,0.073,7.605,0.63,10.606-0.433c2.721-0.964,5.92-2.949,6.843-5.862c0.904-2.853-0.59-6.061-3.643-6.698
			c-4.238-0.884-9.908,4.483-11.82,7.843c-0.113,0.198-1.096,2.485-1.693,3.939c0.221-0.908,0.445-1.786,0.661-2.723
			c0.44-1.85,0.824-3.709,1.245-5.708c0.169-0.972,0.34-1.955,0.513-2.946c0.192-0.98,0.271-2.04,0.412-3.069
			c0.277-2.392,0.442-4.831,0.553-7.291c1.621,0.381,7.397,1.651,10.247,1.107c2.835-0.541,6.299-2.018,7.652-4.758
			c1.325-2.683,0.335-6.08-2.586-7.173c-4.055-1.516-10.473,2.931-12.872,5.962c-0.15,0.189-1.626,2.558-2.413,3.875
			c0.056-1.479,0.118-2.956,0.126-4.454c0.023-4.325-0.09-8.704-0.182-13.073c-0.029-1.339-0.042-2.672-0.06-4.007
			c0.575,0.142,7.408,1.8,10.599,1.191c2.836-0.54,6.299-2.018,7.653-4.758c1.325-2.683,0.335-6.08-2.586-7.172
			c-4.055-1.516-10.473,2.931-12.872,5.962c-0.181,0.228-2.301,3.64-2.797,4.534c-0.038-2.94-0.049-5.871,0.057-8.76
			c0.142-3.987,0.5-7.892,1.128-11.648c0.268,0.067,7.391,1.829,10.66,1.206c2.836-0.541,6.299-2.018,7.653-4.759
			c1.325-2.682,0.335-6.08-2.587-7.172c-4.055-1.516-10.473,2.93-12.872,5.962c-0.157,0.199-1.775,2.796-2.515,4.049
			c-0.128-0.048-0.105-0.039-0.232-0.087c0.721-4.016,1.925-7.815,3.227-11.316c0.75-2.029,1.581-3.927,2.431-5.755
			c1.293,0.464,7.226,2.521,10.229,2.285c2.879-0.226,6.483-1.314,8.13-3.889c1.612-2.522,1.001-6.007-1.783-7.413
			c-3.864-1.953-10.731,1.763-13.448,4.512c-0.148,0.15-1.482,1.836-2.436,3.078c0.396-0.819,0.79-1.672,1.185-2.45
			c1.476-2.922,3.008-5.507,4.383-7.785c0.793-1.289,1.535-2.439,2.24-3.508c1.507-0.206,7.568-1.115,10.079-2.679
			c2.45-1.527,5.148-4.154,5.422-7.198c0.268-2.981-1.88-5.792-4.999-5.757c-4.329,0.048-8.712,6.51-9.857,10.202
			c-0.098,0.319-1.072,5.487-0.993,5.477c0,0,0.073-0.01,0.091-0.012c-0.7,1.015-1.438,2.11-2.221,3.325
			c-1.428,2.253-3.02,4.811-4.566,7.713c-1.552,2.895-3.157,6.085-4.544,9.597c-1.395,3.518-2.683,7.291-3.507,11.349
			c-0.01,0.046-0.013,0.095-0.022,0.141c-0.128-1.262-0.603-4.778-0.67-5.044c-0.946-3.748-4.977-10.435-9.298-10.714
			c-3.112-0.2-5.408,2.492-5.299,5.483c0.112,3.054,2.665,5.821,5.03,7.477c2.668,1.867,9.61,3.158,10.163,3.258
			c-0.75,3.872-1.204,7.907-1.44,12.015c-0.137,2.348-0.202,4.718-0.237,7.095c-0.145-1.087-0.284-2.059-0.318-2.193
			c-0.946-3.748-4.977-10.435-9.297-10.714c-3.113-0.201-5.408,2.492-5.299,5.483c0.111,3.054,2.665,5.821,5.03,7.477
			c2.4,1.68,8.297,2.899,9.862,3.201c-0.004,0.912-0.018,1.823-0.018,2.734c-0.003,4.375,0.014,8.742-0.101,13.025
			c-0.04,1.51-0.135,2.995-0.224,4.481c-0.131-0.966-0.248-1.778-0.279-1.9c-0.946-3.748-4.977-10.435-9.298-10.713
			c-3.113-0.201-5.408,2.492-5.299,5.482c0.112,3.054,2.665,5.82,5.031,7.476c2.291,1.604,7.723,2.777,9.581,3.145
			c-0.138,1.519-0.272,3.041-0.474,4.507c-0.161,0.998-0.246,1.97-0.462,2.963c-0.194,0.988-0.386,1.965-0.576,2.934
			c-0.435,1.852-0.872,3.766-1.341,5.562c-0.317,1.252-0.642,2.438-0.967,3.635c0.058-1.503,0.107-4.445,0.084-4.692
			c-0.244-2.557-1.643-6.595-3.791-9.295c-0.034-0.378-0.101-0.751-0.204-1.117c-0.82-2.878-3.836-4.729-6.734-3.576
			c-4.023,1.6-5.791,9.205-5.532,13.062c0.015,0.227,0.457,2.677,0.761,4.219c-0.317-0.879-0.614-1.736-0.951-2.636
			c-0.654-1.786-1.359-3.548-2.111-5.448c-0.395-0.904-0.795-1.817-1.198-2.74c-0.38-0.924-0.9-1.85-1.349-2.787
			c-1.089-2.149-2.297-4.273-3.561-6.387c1.562-0.577,7.08-2.704,9.157-4.729c2.067-2.015,4.14-5.158,3.758-8.19
			c-0.375-2.969-3.074-5.256-6.114-4.556c-4.219,0.973-7.118,8.222-7.447,12.074c-0.02,0.241,0.054,3.031,0.125,4.563
			c-0.77-1.265-1.532-2.531-2.352-3.784c-2.368-3.62-4.877-7.21-7.364-10.803c-0.763-1.1-1.509-2.205-2.261-3.309
			c0.558-0.199,7.172-2.586,9.498-4.854c2.067-2.016,4.141-5.159,3.758-8.191c-0.375-2.969-3.074-5.256-6.114-4.555
			c-4.219,0.972-7.118,8.222-7.447,12.074c-0.025,0.29,0.089,4.305,0.168,5.324c-1.654-2.431-3.28-4.869-4.785-7.338
			c-2.082-3.404-3.936-6.858-5.484-10.338c0.26-0.092,7.174-2.552,9.556-4.875c2.067-2.015,4.14-5.158,3.758-8.19
			c-0.375-2.969-3.075-5.256-6.114-4.555c-4.219,0.973-7.119,8.222-7.447,12.073c-0.022,0.253,0.062,3.314,0.136,4.768
			c-0.132,0.03-0.108,0.025-0.241,0.055c-1.615-3.748-2.707-7.581-3.552-11.221c-0.493-2.106-0.848-4.148-1.148-6.141
			c1.335-0.326,7.418-1.883,9.793-3.737c2.276-1.777,4.682-4.672,4.635-7.728c-0.047-2.992-2.479-5.562-5.577-5.199
			c-4.3,0.503-7.977,7.39-8.727,11.183c-0.041,0.206-0.223,2.349-0.334,3.911c-0.121-0.901-0.263-1.83-0.362-2.696
			c-0.381-3.252-0.529-6.253-0.639-8.912c-0.05-1.513-0.065-2.881-0.066-4.162c1.143-1.004,5.697-5.104,6.928-7.794
			c1.201-2.626,2.002-6.305,0.552-8.994c-1.42-2.634-4.763-3.794-7.346-2.045c-3.584,2.428-3.675,10.235-2.593,13.947
			c0.094,0.321,2.133,5.168,2.193,5.117c0,0,0.056-0.049,0.069-0.06c-0.024,1.232-0.035,2.554-0.018,3.998
			c0.052,2.666,0.135,5.679,0.447,8.952c0.303,3.271,0.723,6.817,1.505,10.511c0.777,3.704,1.784,7.561,3.335,11.401
			c0.018,0.043,0.041,0.086,0.059,0.129c-0.802-0.982-3.138-3.653-3.341-3.838c-2.857-2.604-9.908-5.957-13.665-3.807
			c-2.707,1.55-3.136,5.062-1.395,7.496c1.778,2.486,5.434,3.385,8.32,3.461c3.255,0.086,9.757-2.667,10.274-2.888
			c1.511,3.643,3.358,7.259,5.428,10.815c1.181,2.035,2.434,4.048,3.716,6.049c-0.721-0.827-1.372-1.561-1.474-1.654
			c-2.857-2.605-9.909-5.957-13.665-3.807c-2.707,1.549-3.136,5.061-1.395,7.495c1.778,2.486,5.434,3.385,8.32,3.462
			c2.929,0.077,8.519-2.159,9.991-2.771c0.5,0.763,0.99,1.53,1.493,2.291c2.412,3.651,4.835,7.284,7.101,10.92
			c0.8,1.281,1.54,2.571,2.286,3.861c-0.642-0.734-1.188-1.346-1.281-1.431c-2.857-2.604-9.908-5.958-13.665-3.807
			c-2.707,1.55-3.136,5.062-1.395,7.496c1.778,2.486,5.434,3.385,8.32,3.461C403.96,448.538,409.139,446.52,410.891,445.802z"/>
		<path style="opacity:0.3;fill:#263238;" d="M371.908,387.425c3.245,0.981,10.771-0.086,10.777-0.087
			c0.078-0.011-2.209-4.747-2.387-5.029c-2.068-3.266-7.983-8.362-12.175-7.28c-3.02,0.78-4.361,4.054-3.325,6.862
			C365.856,384.756,369.144,386.589,371.908,387.425z"/>
		<path style="opacity:0.3;fill:#263238;" d="M448.429,380.01c0.072,0.034,0.776-5.178,0.783-5.512
			c0.077-3.865-2.045-11.379-6.139-12.788c-2.948-1.016-5.874,0.975-6.558,3.888c-0.699,2.975,1.033,6.318,2.878,8.54
			C441.558,376.746,448.424,380.007,448.429,380.01z"/>
		<path style="opacity:0.3;fill:#263238;" d="M410.891,445.802c0.724,1.343,1.451,2.686,2.091,4.021
			c0.417,0.921,0.882,1.778,1.249,2.727c0.384,0.931,0.763,1.852,1.139,2.765c0.659,1.784,1.35,3.622,1.949,5.379
			c0.426,1.218,0.81,2.388,1.199,3.565c-0.781-1.284-2.363-3.767-2.518-3.959c-2.429-3.007-8.891-7.39-12.931-5.833
			c-2.91,1.122-3.867,4.528-2.514,7.198c1.381,2.726,4.858,4.169,7.7,4.682c3.128,0.564,9.712-1.074,10.534-1.285
			c0.638,1.95,1.24,3.852,1.779,5.656c0.966,3.204,1.783,6.14,2.47,8.747h2.874c-0.794-2.796-1.751-5.993-2.895-9.512
			c-0.64-1.982-1.363-4.088-2.126-6.243c0.478-0.259,3.192-1.751,5.55-3.463c2.483,2.121,8.453,4.239,9.225,4.508
			c-0.543,1.978-1.091,3.897-1.636,5.699c-1.006,3.353-1.987,6.374-2.885,9.011h2.903c0.774-2.479,1.601-5.246,2.446-8.299
			c0.56-2.006,1.118-4.161,1.67-6.38c0.829,0.073,7.605,0.63,10.606-0.433c2.721-0.964,5.92-2.949,6.843-5.862
			c0.904-2.853-0.59-6.061-3.643-6.698c-4.238-0.884-9.908,4.483-11.82,7.843c-0.113,0.198-1.096,2.485-1.693,3.939
			c0.221-0.908,0.445-1.786,0.661-2.723c0.44-1.85,0.824-3.709,1.245-5.708c0.169-0.972,0.34-1.955,0.513-2.946
			c0.192-0.98,0.271-2.04,0.412-3.069c0.277-2.392,0.442-4.831,0.553-7.291c1.621,0.381,7.397,1.651,10.247,1.107
			c2.835-0.541,6.299-2.018,7.652-4.758c1.325-2.683,0.335-6.08-2.586-7.173c-4.055-1.516-10.473,2.931-12.872,5.962
			c-0.15,0.189-1.626,2.558-2.413,3.875c0.056-1.479,0.118-2.956,0.126-4.454c0.023-4.325-0.09-8.704-0.182-13.073
			c-0.029-1.339-0.042-2.672-0.06-4.007c0.575,0.142,7.408,1.8,10.599,1.191c2.836-0.54,6.299-2.018,7.653-4.758
			c1.325-2.683,0.335-6.08-2.586-7.172c-4.055-1.516-10.473,2.931-12.872,5.962c-0.181,0.228-2.301,3.64-2.797,4.534
			c-0.038-2.94-0.049-5.871,0.057-8.76c0.142-3.987,0.5-7.892,1.128-11.648c0.268,0.067,7.391,1.829,10.66,1.206
			c2.836-0.541,6.299-2.018,7.653-4.759c1.325-2.682,0.335-6.08-2.587-7.172c-4.055-1.516-10.473,2.93-12.872,5.962
			c-0.157,0.199-1.775,2.796-2.515,4.049c-0.128-0.048-0.105-0.039-0.232-0.087c0.721-4.016,1.925-7.815,3.227-11.316
			c0.75-2.029,1.581-3.927,2.431-5.755c1.293,0.464,7.226,2.521,10.229,2.285c2.879-0.226,6.483-1.314,8.13-3.889
			c1.612-2.522,1.001-6.007-1.783-7.413c-3.864-1.953-10.731,1.763-13.448,4.512c-0.148,0.15-1.482,1.836-2.436,3.078
			c0.396-0.819,0.79-1.672,1.185-2.45c1.476-2.922,3.008-5.507,4.383-7.785c0.793-1.289,1.535-2.439,2.24-3.508
			c1.507-0.206,7.568-1.115,10.079-2.679c2.45-1.527,5.148-4.154,5.422-7.198c0.268-2.981-1.88-5.792-4.999-5.757
			c-4.329,0.048-8.712,6.51-9.857,10.202c-0.098,0.319-1.072,5.487-0.993,5.477c0,0,0.073-0.01,0.091-0.012
			c-0.7,1.015-1.438,2.11-2.221,3.325c-1.428,2.253-3.02,4.811-4.566,7.713c-1.552,2.895-3.157,6.085-4.544,9.597
			c-1.395,3.518-2.683,7.291-3.507,11.349c-0.01,0.046-0.013,0.095-0.022,0.141c-0.128-1.262-0.603-4.778-0.67-5.044
			c-0.946-3.748-4.977-10.435-9.298-10.714c-3.112-0.2-5.408,2.492-5.299,5.483c0.112,3.054,2.665,5.821,5.03,7.477
			c2.668,1.867,9.61,3.158,10.163,3.258c-0.75,3.872-1.204,7.907-1.44,12.015c-0.137,2.348-0.202,4.718-0.237,7.095
			c-0.145-1.087-0.284-2.059-0.318-2.193c-0.946-3.748-4.977-10.435-9.297-10.714c-3.113-0.201-5.408,2.492-5.299,5.483
			c0.111,3.054,2.665,5.821,5.03,7.477c2.4,1.68,8.297,2.899,9.862,3.201c-0.004,0.912-0.018,1.823-0.018,2.734
			c-0.003,4.375,0.014,8.742-0.101,13.025c-0.04,1.51-0.135,2.995-0.224,4.481c-0.131-0.966-0.248-1.778-0.279-1.9
			c-0.946-3.748-4.977-10.435-9.298-10.713c-3.113-0.201-5.408,2.492-5.299,5.482c0.112,3.054,2.665,5.82,5.031,7.476
			c2.291,1.604,7.723,2.777,9.581,3.145c-0.138,1.519-0.272,3.041-0.474,4.507c-0.161,0.998-0.246,1.97-0.462,2.963
			c-0.194,0.988-0.386,1.965-0.576,2.934c-0.435,1.852-0.872,3.766-1.341,5.562c-0.317,1.252-0.642,2.438-0.967,3.635
			c0.058-1.503,0.107-4.445,0.084-4.692c-0.244-2.557-1.643-6.595-3.791-9.295c-0.034-0.378-0.101-0.751-0.204-1.117
			c-0.82-2.878-3.836-4.729-6.734-3.576c-4.023,1.6-5.791,9.205-5.532,13.062c0.015,0.227,0.457,2.677,0.761,4.219
			c-0.317-0.879-0.614-1.736-0.951-2.636c-0.654-1.786-1.359-3.548-2.111-5.448c-0.395-0.904-0.795-1.817-1.198-2.74
			c-0.38-0.924-0.9-1.85-1.349-2.787c-1.089-2.149-2.297-4.273-3.561-6.387c1.562-0.577,7.08-2.704,9.157-4.729
			c2.067-2.015,4.14-5.158,3.758-8.19c-0.375-2.969-3.074-5.256-6.114-4.556c-4.219,0.973-7.118,8.222-7.447,12.074
			c-0.02,0.241,0.054,3.031,0.125,4.563c-0.77-1.265-1.532-2.531-2.352-3.784c-2.368-3.62-4.877-7.21-7.364-10.803
			c-0.763-1.1-1.509-2.205-2.261-3.309c0.558-0.199,7.172-2.586,9.498-4.854c2.067-2.016,4.141-5.159,3.758-8.191
			c-0.375-2.969-3.074-5.256-6.114-4.555c-4.219,0.972-7.118,8.222-7.447,12.074c-0.025,0.29,0.089,4.305,0.168,5.324
			c-1.654-2.431-3.28-4.869-4.785-7.338c-2.082-3.404-3.936-6.858-5.484-10.338c0.26-0.092,7.174-2.552,9.556-4.875
			c2.067-2.015,4.14-5.158,3.758-8.19c-0.375-2.969-3.075-5.256-6.114-4.555c-4.219,0.973-7.119,8.222-7.447,12.073
			c-0.022,0.253,0.062,3.314,0.136,4.768c-0.132,0.03-0.108,0.025-0.241,0.055c-1.615-3.748-2.707-7.581-3.552-11.221
			c-0.493-2.106-0.848-4.148-1.148-6.141c1.335-0.326,7.418-1.883,9.793-3.737c2.276-1.777,4.682-4.672,4.635-7.728
			c-0.047-2.992-2.479-5.562-5.577-5.199c-4.3,0.503-7.977,7.39-8.727,11.183c-0.041,0.206-0.223,2.349-0.334,3.911
			c-0.121-0.901-0.263-1.83-0.362-2.696c-0.381-3.252-0.529-6.253-0.639-8.912c-0.05-1.513-0.065-2.881-0.066-4.162
			c1.143-1.004,5.697-5.104,6.928-7.794c1.201-2.626,2.002-6.305,0.552-8.994c-1.42-2.634-4.763-3.794-7.346-2.045
			c-3.584,2.428-3.675,10.235-2.593,13.947c0.094,0.321,2.133,5.168,2.193,5.117c0,0,0.056-0.049,0.069-0.06
			c-0.024,1.232-0.035,2.554-0.018,3.998c0.052,2.666,0.135,5.679,0.447,8.952c0.303,3.271,0.723,6.817,1.505,10.511
			c0.777,3.704,1.784,7.561,3.335,11.401c0.018,0.043,0.041,0.086,0.059,0.129c-0.802-0.982-3.138-3.653-3.341-3.838
			c-2.857-2.604-9.908-5.957-13.665-3.807c-2.707,1.55-3.136,5.062-1.395,7.496c1.778,2.486,5.434,3.385,8.32,3.461
			c3.255,0.086,9.757-2.667,10.274-2.888c1.511,3.643,3.358,7.259,5.428,10.815c1.181,2.035,2.434,4.048,3.716,6.049
			c-0.721-0.827-1.372-1.561-1.474-1.654c-2.857-2.605-9.909-5.957-13.665-3.807c-2.707,1.549-3.136,5.061-1.395,7.495
			c1.778,2.486,5.434,3.385,8.32,3.462c2.929,0.077,8.519-2.159,9.991-2.771c0.5,0.763,0.99,1.53,1.493,2.291
			c2.412,3.651,4.835,7.284,7.101,10.92c0.8,1.281,1.54,2.571,2.286,3.861c-0.642-0.734-1.188-1.346-1.281-1.431
			c-2.857-2.604-9.908-5.958-13.665-3.807c-2.707,1.55-3.136,5.062-1.395,7.496c1.778,2.486,5.434,3.385,8.32,3.461
			C403.96,448.538,409.139,446.52,410.891,445.802z"/>
	</g>
	<g>
		<path style="fill:#263238;" d="M105.013,420.425c0.043,0.02,0.461-3.074,0.465-3.272c0.046-2.294-1.214-6.755-3.644-7.591
			c-1.75-0.603-3.487,0.579-3.893,2.308c-0.415,1.766,0.613,3.75,1.708,5.069C100.934,418.487,105.01,420.423,105.013,420.425z"/>
		<path style="fill:#263238;" d="M59.587,424.826c1.926,0.582,6.394-0.051,6.397-0.052c0.046-0.007-1.311-2.818-1.417-2.986
			c-1.228-1.939-4.739-4.964-7.228-4.322c-1.793,0.463-2.589,2.407-1.974,4.073C55.995,423.242,57.947,424.33,59.587,424.826z"/>
		<path style="fill:#263238;" d="M82.729,459.481c0.43,0.797,0.862,1.595,1.242,2.387c0.247,0.547,0.524,1.056,0.741,1.618
			c0.228,0.553,0.453,1.1,0.676,1.642c0.391,1.059,0.801,2.15,1.157,3.193c0.253,0.723,0.48,1.418,0.712,2.116
			c-0.463-0.763-1.403-2.236-1.495-2.35c-1.442-1.785-5.278-4.387-7.676-3.463c-1.727,0.666-2.295,2.688-1.493,4.273
			c0.82,1.618,2.884,2.475,4.571,2.779c1.857,0.335,5.766-0.638,6.253-0.763c0.378,1.157,0.736,2.287,1.056,3.358
			c0.574,1.902,1.058,3.645,1.466,5.192h1.706c-0.472-1.66-1.039-3.558-1.719-5.647c-0.38-1.177-0.809-2.427-1.262-3.706
			c0.284-0.154,1.895-1.04,3.295-2.056c1.474,1.259,5.018,2.517,5.477,2.676c-0.323,1.174-0.648,2.313-0.971,3.383
			c-0.597,1.991-1.18,3.784-1.712,5.35h1.723c0.46-1.471,0.951-3.114,1.452-4.927c0.332-1.191,0.664-2.47,0.992-3.787
			c0.492,0.043,4.515,0.374,6.296-0.257c1.615-0.572,3.514-1.751,4.063-3.48c0.537-1.693-0.35-3.598-2.163-3.976
			c-2.516-0.525-5.882,2.661-7.016,4.656c-0.067,0.118-0.651,1.475-1.005,2.338c0.131-0.539,0.264-1.06,0.393-1.617
			c0.261-1.098,0.489-2.202,0.739-3.389c0.101-0.577,0.202-1.16,0.304-1.749c0.114-0.582,0.161-1.211,0.245-1.822
			c0.164-1.42,0.262-2.868,0.328-4.328c0.962,0.226,4.391,0.98,6.083,0.657c1.683-0.321,3.739-1.198,4.543-2.825
			c0.787-1.593,0.199-3.609-1.535-4.258c-2.407-0.9-6.217,1.74-7.641,3.539c-0.089,0.112-0.965,1.518-1.432,2.3
			c0.033-0.878,0.07-1.755,0.075-2.644c0.014-2.568-0.053-5.167-0.108-7.761c-0.017-0.795-0.025-1.586-0.035-2.379
			c0.341,0.084,4.398,1.068,6.292,0.707c1.684-0.321,3.739-1.198,4.543-2.825c0.787-1.593,0.199-3.609-1.535-4.258
			c-2.407-0.9-6.217,1.74-7.641,3.539c-0.107,0.135-1.366,2.161-1.661,2.691c-0.023-1.745-0.029-3.485,0.034-5.2
			c0.084-2.367,0.297-4.685,0.67-6.915c0.159,0.04,4.388,1.086,6.328,0.716c1.684-0.321,3.739-1.198,4.543-2.825
			c0.787-1.592,0.199-3.609-1.535-4.258c-2.407-0.9-6.217,1.74-7.641,3.539c-0.093,0.118-1.053,1.659-1.493,2.404
			c-0.076-0.029-0.062-0.023-0.138-0.052c0.428-2.384,1.143-4.64,1.916-6.718c0.445-1.204,0.939-2.331,1.443-3.416
			c0.768,0.275,4.289,1.496,6.072,1.356c1.709-0.134,3.848-0.78,4.826-2.309c0.957-1.497,0.594-3.566-1.059-4.401
			c-2.294-1.159-6.37,1.047-7.983,2.678c-0.088,0.089-0.88,1.09-1.446,1.827c0.235-0.486,0.469-0.992,0.704-1.454
			c0.876-1.735,1.786-3.269,2.602-4.621c0.471-0.765,0.911-1.448,1.33-2.082c0.895-0.122,4.492-0.662,5.983-1.59
			c1.454-0.906,3.056-2.466,3.219-4.273c0.159-1.769-1.116-3.438-2.967-3.418c-2.57,0.029-5.172,3.864-5.851,6.057
			c-0.058,0.189-0.637,3.257-0.59,3.252c0,0,0.043-0.006,0.054-0.007c-0.416,0.603-0.854,1.253-1.319,1.974
			c-0.847,1.337-1.793,2.856-2.71,4.578c-0.921,1.719-1.874,3.612-2.697,5.697c-0.828,2.089-1.593,4.328-2.082,6.737
			c-0.006,0.027-0.008,0.057-0.013,0.084c-0.076-0.749-0.358-2.837-0.398-2.995c-0.562-2.225-2.954-6.194-5.519-6.36
			c-1.848-0.119-3.21,1.48-3.145,3.255c0.067,1.813,1.582,3.456,2.986,4.438c1.584,1.108,5.704,1.875,6.033,1.934
			c-0.445,2.299-0.715,4.694-0.855,7.133c-0.081,1.394-0.12,2.801-0.141,4.212c-0.086-0.646-0.168-1.222-0.188-1.302
			c-0.562-2.225-2.955-6.194-5.519-6.36c-1.848-0.119-3.21,1.479-3.146,3.255c0.066,1.813,1.582,3.455,2.986,4.438
			c1.425,0.997,4.925,1.721,5.854,1.9c-0.002,0.541-0.011,1.082-0.011,1.623c-0.002,2.597,0.008,5.19-0.06,7.732
			c-0.024,0.896-0.08,1.778-0.133,2.66c-0.077-0.573-0.147-1.056-0.165-1.128c-0.562-2.225-2.955-6.194-5.52-6.36
			c-1.848-0.119-3.21,1.479-3.145,3.255c0.066,1.813,1.582,3.455,2.986,4.438c1.36,0.952,4.585,1.649,5.688,1.867
			c-0.082,0.902-0.162,1.805-0.282,2.675c-0.095,0.592-0.146,1.169-0.274,1.759c-0.115,0.586-0.229,1.167-0.342,1.742
			c-0.258,1.099-0.518,2.235-0.796,3.302c-0.188,0.743-0.381,1.447-0.574,2.158c0.034-0.892,0.064-2.639,0.05-2.785
			c-0.145-1.518-0.975-3.915-2.251-5.518c-0.02-0.224-0.06-0.446-0.121-0.663c-0.487-1.708-2.277-2.807-3.998-2.123
			c-2.388,0.95-3.437,5.464-3.284,7.754c0.009,0.135,0.271,1.589,0.452,2.505c-0.188-0.522-0.364-1.03-0.564-1.565
			c-0.388-1.06-0.807-2.106-1.253-3.234c-0.235-0.537-0.472-1.079-0.711-1.626c-0.226-0.548-0.534-1.099-0.801-1.654
			c-0.647-1.275-1.363-2.537-2.114-3.792c0.927-0.342,4.203-1.605,5.436-2.807c1.227-1.196,2.458-3.062,2.231-4.862
			c-0.222-1.762-1.825-3.12-3.629-2.704c-2.504,0.577-4.226,4.881-4.421,7.167c-0.012,0.143,0.032,1.799,0.074,2.709
			c-0.457-0.751-0.909-1.502-1.396-2.247c-1.406-2.149-2.895-4.28-4.371-6.413c-0.453-0.653-0.896-1.309-1.342-1.964
			c0.331-0.118,4.257-1.535,5.638-2.882c1.227-1.197,2.458-3.062,2.231-4.862c-0.222-1.762-1.825-3.12-3.629-2.704
			c-2.504,0.577-4.226,4.881-4.421,7.167c-0.015,0.172,0.053,2.556,0.1,3.161c-0.982-1.443-1.947-2.891-2.841-4.356
			c-1.236-2.02-2.337-4.071-3.256-6.137c0.154-0.055,4.259-1.515,5.673-2.894c1.227-1.197,2.458-3.062,2.231-4.862
			c-0.222-1.762-1.825-3.12-3.629-2.704c-2.505,0.577-4.226,4.881-4.421,7.167c-0.013,0.15,0.037,1.967,0.08,2.83
			c-0.079,0.018-0.064,0.015-0.143,0.033c-0.958-2.225-1.607-4.501-2.108-6.661c-0.293-1.25-0.503-2.462-0.681-3.646
			c0.792-0.193,4.403-1.118,5.813-2.219c1.351-1.055,2.779-2.774,2.752-4.588c-0.028-1.776-1.472-3.302-3.311-3.087
			c-2.552,0.298-4.736,4.387-5.181,6.638c-0.024,0.122-0.132,1.394-0.199,2.322c-0.072-0.535-0.156-1.086-0.215-1.601
			c-0.226-1.93-0.314-3.712-0.379-5.29c-0.03-0.898-0.039-1.71-0.039-2.471c0.678-0.596,3.382-3.03,4.113-4.627
			c0.713-1.559,1.188-3.743,0.328-5.339c-0.843-1.564-2.828-2.252-4.361-1.214c-2.128,1.441-2.181,6.076-1.539,8.279
			c0.056,0.19,1.266,3.068,1.302,3.038c0,0,0.033-0.029,0.041-0.036c-0.014,0.731-0.021,1.516-0.011,2.373
			c0.031,1.583,0.08,3.371,0.265,5.314c0.18,1.942,0.429,4.047,0.893,6.239c0.462,2.199,1.059,4.489,1.98,6.768
			c0.011,0.026,0.025,0.051,0.035,0.077c-0.476-0.583-1.863-2.169-1.983-2.278c-1.696-1.546-5.882-3.536-8.112-2.26
			c-1.607,0.92-1.862,3.005-0.828,4.45c1.056,1.476,3.226,2.009,4.939,2.054c1.932,0.051,5.792-1.583,6.099-1.715
			c0.897,2.163,1.993,4.309,3.222,6.42c0.701,1.208,1.445,2.403,2.206,3.591c-0.428-0.491-0.814-0.927-0.875-0.982
			c-1.696-1.546-5.882-3.537-8.112-2.26c-1.607,0.92-1.862,3.005-0.828,4.449c1.055,1.476,3.226,2.01,4.939,2.055
			c1.739,0.046,5.057-1.282,5.931-1.645c0.297,0.453,0.588,0.909,0.886,1.36c1.432,2.167,2.87,4.324,4.215,6.483
			c0.475,0.76,0.914,1.526,1.357,2.292c-0.381-0.435-0.705-0.799-0.761-0.849c-1.696-1.546-5.882-3.537-8.112-2.26
			c-1.607,0.92-1.862,3.005-0.828,4.45c1.055,1.475,3.225,2.009,4.939,2.055C78.615,461.105,81.689,459.907,82.729,459.481z"/>
		<path style="opacity:0.3;fill:#263238;" d="M59.587,424.826c1.926,0.582,6.394-0.051,6.397-0.052
			c0.046-0.007-1.311-2.818-1.417-2.986c-1.228-1.939-4.739-4.964-7.228-4.322c-1.793,0.463-2.589,2.407-1.974,4.073
			C55.995,423.242,57.947,424.33,59.587,424.826z"/>
		<path style="opacity:0.3;fill:#263238;" d="M105.013,420.425c0.043,0.02,0.461-3.074,0.465-3.272
			c0.046-2.294-1.214-6.755-3.644-7.591c-1.75-0.603-3.487,0.579-3.893,2.308c-0.415,1.766,0.613,3.75,1.708,5.069
			C100.934,418.487,105.01,420.423,105.013,420.425z"/>
		<path style="opacity:0.3;fill:#263238;" d="M82.729,459.481c0.43,0.797,0.862,1.595,1.242,2.387
			c0.247,0.547,0.524,1.056,0.741,1.618c0.228,0.553,0.453,1.1,0.676,1.642c0.391,1.059,0.801,2.15,1.157,3.193
			c0.253,0.723,0.48,1.418,0.712,2.116c-0.463-0.763-1.403-2.236-1.495-2.35c-1.442-1.785-5.278-4.387-7.676-3.463
			c-1.727,0.666-2.295,2.688-1.493,4.273c0.82,1.618,2.884,2.475,4.571,2.779c1.857,0.335,5.766-0.638,6.253-0.763
			c0.378,1.157,0.736,2.287,1.056,3.358c0.574,1.902,1.058,3.645,1.466,5.192h1.706c-0.472-1.66-1.039-3.558-1.719-5.647
			c-0.38-1.177-0.809-2.427-1.262-3.706c0.284-0.154,1.895-1.04,3.295-2.056c1.474,1.259,5.018,2.517,5.477,2.676
			c-0.323,1.174-0.648,2.313-0.971,3.383c-0.597,1.991-1.18,3.784-1.712,5.35h1.723c0.46-1.471,0.951-3.114,1.452-4.927
			c0.332-1.191,0.664-2.47,0.992-3.787c0.492,0.043,4.515,0.374,6.296-0.257c1.615-0.572,3.514-1.751,4.063-3.48
			c0.537-1.693-0.35-3.598-2.163-3.976c-2.516-0.525-5.882,2.661-7.016,4.656c-0.067,0.118-0.651,1.475-1.005,2.338
			c0.131-0.539,0.264-1.06,0.393-1.617c0.261-1.098,0.489-2.202,0.739-3.389c0.101-0.577,0.202-1.16,0.304-1.749
			c0.114-0.582,0.161-1.211,0.245-1.822c0.164-1.42,0.262-2.868,0.328-4.328c0.962,0.226,4.391,0.98,6.083,0.657
			c1.683-0.321,3.739-1.198,4.543-2.825c0.787-1.593,0.199-3.609-1.535-4.258c-2.407-0.9-6.217,1.74-7.641,3.539
			c-0.089,0.112-0.965,1.518-1.432,2.3c0.033-0.878,0.07-1.755,0.075-2.644c0.014-2.568-0.053-5.167-0.108-7.761
			c-0.017-0.795-0.025-1.586-0.035-2.379c0.341,0.084,4.398,1.068,6.292,0.707c1.684-0.321,3.739-1.198,4.543-2.825
			c0.787-1.593,0.199-3.609-1.535-4.258c-2.407-0.9-6.217,1.74-7.641,3.539c-0.107,0.135-1.366,2.161-1.661,2.691
			c-0.023-1.745-0.029-3.485,0.034-5.2c0.084-2.367,0.297-4.685,0.67-6.915c0.159,0.04,4.388,1.086,6.328,0.716
			c1.684-0.321,3.739-1.198,4.543-2.825c0.787-1.592,0.199-3.609-1.535-4.258c-2.407-0.9-6.217,1.74-7.641,3.539
			c-0.093,0.118-1.053,1.659-1.493,2.404c-0.076-0.029-0.062-0.023-0.138-0.052c0.428-2.384,1.143-4.64,1.916-6.718
			c0.445-1.204,0.939-2.331,1.443-3.416c0.768,0.275,4.289,1.496,6.072,1.356c1.709-0.134,3.848-0.78,4.826-2.309
			c0.957-1.497,0.594-3.566-1.059-4.401c-2.294-1.159-6.37,1.047-7.983,2.678c-0.088,0.089-0.88,1.09-1.446,1.827
			c0.235-0.486,0.469-0.992,0.704-1.454c0.876-1.735,1.786-3.269,2.602-4.621c0.471-0.765,0.911-1.448,1.33-2.082
			c0.895-0.122,4.492-0.662,5.983-1.59c1.454-0.906,3.056-2.466,3.219-4.273c0.159-1.769-1.116-3.438-2.967-3.418
			c-2.57,0.029-5.172,3.864-5.851,6.057c-0.058,0.189-0.637,3.257-0.59,3.252c0,0,0.043-0.006,0.054-0.007
			c-0.416,0.603-0.854,1.253-1.319,1.974c-0.847,1.337-1.793,2.856-2.71,4.578c-0.921,1.719-1.874,3.612-2.697,5.697
			c-0.828,2.089-1.593,4.328-2.082,6.737c-0.006,0.027-0.008,0.057-0.013,0.084c-0.076-0.749-0.358-2.837-0.398-2.995
			c-0.562-2.225-2.954-6.194-5.519-6.36c-1.848-0.119-3.21,1.48-3.145,3.255c0.067,1.813,1.582,3.456,2.986,4.438
			c1.584,1.108,5.704,1.875,6.033,1.934c-0.445,2.299-0.715,4.694-0.855,7.133c-0.081,1.394-0.12,2.801-0.141,4.212
			c-0.086-0.646-0.168-1.222-0.188-1.302c-0.562-2.225-2.955-6.194-5.519-6.36c-1.848-0.119-3.21,1.479-3.146,3.255
			c0.066,1.813,1.582,3.455,2.986,4.438c1.425,0.997,4.925,1.721,5.854,1.9c-0.002,0.541-0.011,1.082-0.011,1.623
			c-0.002,2.597,0.008,5.19-0.06,7.732c-0.024,0.896-0.08,1.778-0.133,2.66c-0.077-0.573-0.147-1.056-0.165-1.128
			c-0.562-2.225-2.955-6.194-5.52-6.36c-1.848-0.119-3.21,1.479-3.145,3.255c0.066,1.813,1.582,3.455,2.986,4.438
			c1.36,0.952,4.585,1.649,5.688,1.867c-0.082,0.902-0.162,1.805-0.282,2.675c-0.095,0.592-0.146,1.169-0.274,1.759
			c-0.115,0.586-0.229,1.167-0.342,1.742c-0.258,1.099-0.518,2.235-0.796,3.302c-0.188,0.743-0.381,1.447-0.574,2.158
			c0.034-0.892,0.064-2.639,0.05-2.785c-0.145-1.518-0.975-3.915-2.251-5.518c-0.02-0.224-0.06-0.446-0.121-0.663
			c-0.487-1.708-2.277-2.807-3.998-2.123c-2.388,0.95-3.437,5.464-3.284,7.754c0.009,0.135,0.271,1.589,0.452,2.505
			c-0.188-0.522-0.364-1.03-0.564-1.565c-0.388-1.06-0.807-2.106-1.253-3.234c-0.235-0.537-0.472-1.079-0.711-1.626
			c-0.226-0.548-0.534-1.099-0.801-1.654c-0.647-1.275-1.363-2.537-2.114-3.792c0.927-0.342,4.203-1.605,5.436-2.807
			c1.227-1.196,2.458-3.062,2.231-4.862c-0.222-1.762-1.825-3.12-3.629-2.704c-2.504,0.577-4.226,4.881-4.421,7.167
			c-0.012,0.143,0.032,1.799,0.074,2.709c-0.457-0.751-0.909-1.502-1.396-2.247c-1.406-2.149-2.895-4.28-4.371-6.413
			c-0.453-0.653-0.896-1.309-1.342-1.964c0.331-0.118,4.257-1.535,5.638-2.882c1.227-1.197,2.458-3.062,2.231-4.862
			c-0.222-1.762-1.825-3.12-3.629-2.704c-2.504,0.577-4.226,4.881-4.421,7.167c-0.015,0.172,0.053,2.556,0.1,3.161
			c-0.982-1.443-1.947-2.891-2.841-4.356c-1.236-2.02-2.337-4.071-3.256-6.137c0.154-0.055,4.259-1.515,5.673-2.894
			c1.227-1.197,2.458-3.062,2.231-4.862c-0.222-1.762-1.825-3.12-3.629-2.704c-2.505,0.577-4.226,4.881-4.421,7.167
			c-0.013,0.15,0.037,1.967,0.08,2.83c-0.079,0.018-0.064,0.015-0.143,0.033c-0.958-2.225-1.607-4.501-2.108-6.661
			c-0.293-1.25-0.503-2.462-0.681-3.646c0.792-0.193,4.403-1.118,5.813-2.219c1.351-1.055,2.779-2.774,2.752-4.588
			c-0.028-1.776-1.472-3.302-3.311-3.087c-2.552,0.298-4.736,4.387-5.181,6.638c-0.024,0.122-0.132,1.394-0.199,2.322
			c-0.072-0.535-0.156-1.086-0.215-1.601c-0.226-1.93-0.314-3.712-0.379-5.29c-0.03-0.898-0.039-1.71-0.039-2.471
			c0.678-0.596,3.382-3.03,4.113-4.627c0.713-1.559,1.188-3.743,0.328-5.339c-0.843-1.564-2.828-2.252-4.361-1.214
			c-2.128,1.441-2.181,6.076-1.539,8.279c0.056,0.19,1.266,3.068,1.302,3.038c0,0,0.033-0.029,0.041-0.036
			c-0.014,0.731-0.021,1.516-0.011,2.373c0.031,1.583,0.08,3.371,0.265,5.314c0.18,1.942,0.429,4.047,0.893,6.239
			c0.462,2.199,1.059,4.489,1.98,6.768c0.011,0.026,0.025,0.051,0.035,0.077c-0.476-0.583-1.863-2.169-1.983-2.278
			c-1.696-1.546-5.882-3.536-8.112-2.26c-1.607,0.92-1.862,3.005-0.828,4.45c1.056,1.476,3.226,2.009,4.939,2.054
			c1.932,0.051,5.792-1.583,6.099-1.715c0.897,2.163,1.993,4.309,3.222,6.42c0.701,1.208,1.445,2.403,2.206,3.591
			c-0.428-0.491-0.814-0.927-0.875-0.982c-1.696-1.546-5.882-3.537-8.112-2.26c-1.607,0.92-1.862,3.005-0.828,4.449
			c1.055,1.476,3.226,2.01,4.939,2.055c1.739,0.046,5.057-1.282,5.931-1.645c0.297,0.453,0.588,0.909,0.886,1.36
			c1.432,2.167,2.87,4.324,4.215,6.483c0.475,0.76,0.914,1.526,1.357,2.292c-0.381-0.435-0.705-0.799-0.761-0.849
			c-1.696-1.546-5.882-3.537-8.112-2.26c-1.607,0.92-1.862,3.005-0.828,4.45c1.055,1.475,3.225,2.009,4.939,2.055
			C78.615,461.105,81.689,459.907,82.729,459.481z"/>
	</g>
</g>
<g id="Plant_1">
	<g style="opacity:0.2;">
		<path d="M330.684,191.582c0.207,0.098,2.247-14.989,2.267-15.956c0.224-11.188-5.92-32.937-17.769-37.018
			c-8.535-2.941-17.003,2.823-18.983,11.255c-2.023,8.612,2.991,18.287,8.329,24.719
			C310.795,182.133,330.669,191.574,330.684,191.582z"/>
		<path d="M109.183,213.045c9.393,2.839,31.179-0.249,31.194-0.253c0.226-0.032-6.394-13.74-6.911-14.558
			c-5.986-9.455-23.108-24.206-35.243-21.074c-8.741,2.258-12.624,11.736-9.623,19.862
			C91.664,205.321,101.182,210.625,109.183,213.045z"/>
		<path d="M222.024,382.026c2.094,3.887,4.201,7.776,6.054,11.639c1.206,2.666,2.553,5.148,3.615,7.892
			c1.11,2.694,2.207,5.362,3.296,8.004c1.906,5.165,3.907,10.484,5.641,15.57c1.234,3.527,2.343,6.912,3.471,10.318
			c-2.26-3.718-6.839-10.904-7.29-11.46c-7.031-8.705-25.736-21.391-37.43-16.884c-8.423,3.247-11.193,13.107-7.278,20.835
			c3.998,7.892,14.063,12.068,22.289,13.552c9.056,1.631,28.114-3.11,30.491-3.719c1.846,5.643,3.589,11.15,5.15,16.372
			c2.797,9.275,5.16,17.774,7.151,25.318h8.318c-2.3-8.094-5.068-17.348-8.381-27.534c-1.852-5.738-3.947-11.833-6.155-18.071
			c1.385-0.75,9.24-5.069,16.066-10.024c7.188,6.14,24.469,12.271,26.704,13.048c-1.573,5.725-3.157,11.28-4.736,16.496
			c-2.912,9.706-5.753,18.451-8.35,26.085h8.404c2.241-7.174,4.635-15.184,7.08-24.024c1.62-5.807,3.238-12.045,4.835-18.467
			c2.399,0.211,22.015,1.824,30.702-1.253c7.877-2.791,17.137-8.537,19.809-16.97c2.617-8.258-1.707-17.544-10.546-19.387
			c-12.267-2.561-28.68,12.977-34.214,22.703c-0.328,0.573-3.174,7.194-4.901,11.402c0.639-2.627,1.289-5.171,1.914-7.883
			c1.273-5.354,2.386-10.736,3.602-16.523c0.491-2.814,0.985-5.658,1.484-8.529c0.557-2.836,0.784-5.904,1.193-8.883
			c0.802-6.925,1.28-13.984,1.602-21.105c4.693,1.102,21.412,4.778,29.66,3.205c8.208-1.566,18.233-5.842,22.151-13.774
			c3.836-7.767,0.971-17.599-7.487-20.762c-11.738-4.388-30.315,8.485-37.259,17.259c-0.434,0.547-4.708,7.403-6.985,11.216
			c0.161-4.283,0.343-8.556,0.364-12.893c0.065-12.521-0.259-25.195-0.527-37.842c-0.085-3.875-0.121-7.733-0.173-11.599
			c1.664,0.411,21.444,5.21,30.681,3.448c8.21-1.565,18.233-5.842,22.152-13.773c3.836-7.767,0.97-17.6-7.487-20.762
			c-11.738-4.389-30.316,8.484-37.26,17.258c-0.523,0.661-6.659,10.536-8.098,13.123c-0.11-8.511-0.143-16.994,0.165-25.358
			c0.41-11.542,1.449-22.844,3.266-33.717c0.776,0.194,21.395,5.295,30.856,3.491c8.211-1.566,18.234-5.842,22.153-13.775
			c3.836-7.765,0.97-17.599-7.487-20.76c-11.738-4.389-30.315,8.483-37.259,17.258c-0.455,0.576-5.137,8.092-7.281,11.721
			c-0.37-0.139-0.303-0.113-0.672-0.252c2.087-11.625,5.572-22.623,9.342-32.757c2.172-5.874,4.577-11.367,7.038-16.659
			c3.743,1.343,20.916,7.296,29.609,6.614c8.333-0.655,18.765-3.804,23.532-11.256c4.666-7.299,2.896-17.388-5.162-21.459
			c-11.185-5.652-31.063,5.103-38.928,13.061c-0.428,0.434-4.29,5.315-7.052,8.91c1.147-2.371,2.287-4.839,3.43-7.091
			c4.274-8.458,8.707-15.939,12.688-22.534c2.296-3.731,4.443-7.061,6.485-10.154c4.362-0.597,21.906-3.226,29.175-7.755
			c7.092-4.42,14.901-12.023,15.696-20.834c0.777-8.628-5.442-16.765-14.47-16.665c-12.53,0.139-25.217,18.843-28.531,29.532
			c-0.284,0.924-3.104,15.884-2.876,15.855c0,0,0.212-0.029,0.263-0.036c-2.026,2.938-4.163,6.109-6.429,9.624
			c-4.132,6.521-8.742,13.927-13.217,22.326c-4.492,8.38-9.139,17.614-13.152,27.779c-4.038,10.185-7.767,21.104-10.152,32.851
			c-0.028,0.133-0.038,0.276-0.064,0.408c-0.37-3.652-1.744-13.832-1.939-14.602c-2.738-10.849-14.407-30.205-26.913-31.013
			c-9.009-0.58-15.654,7.214-15.338,15.871c0.324,8.84,7.714,16.849,14.561,21.642c7.723,5.405,27.816,9.141,29.418,9.432
			c-2.17,11.209-3.486,22.887-4.167,34.78c-0.397,6.798-0.586,13.658-0.687,20.538c-0.42-3.148-0.821-5.959-0.919-6.347
			c-2.74-10.85-14.408-30.205-26.913-31.013c-9.01-0.581-15.655,7.213-15.338,15.87c0.323,8.841,7.714,16.849,14.561,21.642
			c6.948,4.863,24.016,8.391,28.546,9.265c-0.011,2.64-0.052,5.276-0.053,7.915c-0.008,12.665,0.041,25.305-0.293,37.703
			c-0.115,4.371-0.39,8.67-0.648,12.971c-0.378-2.796-0.718-5.147-0.807-5.5c-2.739-10.85-14.407-30.205-26.914-31.012
			c-9.01-0.582-15.655,7.212-15.337,15.87c0.324,8.839,7.715,16.848,14.562,21.641c6.63,4.642,22.355,8.04,27.733,9.103
			c-0.399,4.397-0.789,8.802-1.372,13.046c-0.465,2.889-0.712,5.702-1.338,8.578c-0.562,2.859-1.118,5.689-1.668,8.493
			c-1.259,5.361-2.524,10.9-3.883,16.099c-0.919,3.623-1.859,7.058-2.798,10.522c0.167-4.349,0.31-12.868,0.242-13.581
			c-0.707-7.401-4.755-19.09-10.975-26.905c-0.098-1.094-0.291-2.174-0.591-3.233c-2.375-8.33-11.104-13.69-19.493-10.352
			c-11.645,4.631-16.762,26.646-16.013,37.811c0.044,0.658,1.322,7.75,2.203,12.213c-0.917-2.545-1.777-5.024-2.753-7.632
			c-1.893-5.169-3.934-10.271-6.11-15.769c-1.144-2.617-2.301-5.26-3.469-7.931c-1.1-2.674-2.604-5.356-3.904-8.067
			c-3.153-6.22-6.648-12.369-10.307-18.488c4.521-1.669,20.494-7.826,26.505-13.689c5.983-5.834,11.985-14.931,10.878-23.707
			c-1.085-8.594-8.898-15.214-17.698-13.187c-12.211,2.815-20.605,23.799-21.556,34.949c-0.059,0.696,0.158,8.773,0.363,13.208
			c-2.23-3.661-4.434-7.325-6.808-10.954c-6.854-10.478-14.117-20.87-21.316-31.272c-2.208-3.185-4.367-6.384-6.544-9.578
			c1.615-0.577,20.761-7.486,27.492-14.051c5.984-5.835,11.985-14.932,10.878-23.709c-1.084-8.593-8.899-15.214-17.697-13.185
			c-12.212,2.815-20.605,23.799-21.556,34.949c-0.071,0.84,0.258,12.461,0.486,15.412c-4.788-7.037-9.495-14.094-13.852-21.241
			c-6.026-9.852-11.393-19.851-15.876-29.924c0.753-0.266,20.766-7.386,27.662-14.111c5.984-5.834,11.985-14.931,10.878-23.708
			c-1.085-8.594-8.9-15.214-17.697-13.185c-12.212,2.815-20.606,23.799-21.556,34.947c-0.064,0.733,0.178,9.593,0.393,13.801
			c-0.383,0.088-0.313,0.071-0.697,0.159c-4.674-10.849-7.834-21.946-10.281-32.481c-1.429-6.097-2.455-12.006-3.322-17.777
			c3.864-0.943,21.471-5.452,28.346-10.818c6.589-5.143,13.553-13.525,13.417-22.37c-0.135-8.661-7.176-16.101-16.143-15.05
			c-12.446,1.456-23.092,21.393-25.263,32.37c-0.119,0.596-0.646,6.798-0.968,11.32c-0.351-2.609-0.762-5.298-1.049-7.805
			c-1.103-9.412-1.532-18.099-1.85-25.796c-0.146-4.378-0.188-8.339-0.192-12.046c3.308-2.905,16.491-14.775,20.055-22.562
			c3.477-7.6,5.795-18.249,1.598-26.036c-4.111-7.625-13.788-10.982-21.263-5.919c-10.375,7.029-10.637,29.627-7.505,40.371
			c0.272,0.928,6.174,14.961,6.349,14.811c0,0,0.161-0.141,0.199-0.175c-0.07,3.567-0.101,7.394-0.053,11.573
			c0.15,7.718,0.391,16.44,1.293,25.913c0.876,9.468,2.094,19.732,4.355,30.424c2.251,10.723,5.164,21.887,9.655,33.002
			c0.052,0.125,0.12,0.249,0.171,0.374c-2.323-2.842-9.085-10.574-9.67-11.109c-8.27-7.539-28.681-17.244-39.556-11.02
			c-7.836,4.486-9.079,14.652-4.038,21.698c5.147,7.195,15.729,9.798,24.084,10.017c9.422,0.25,28.243-7.721,29.739-8.361
			c4.374,10.546,9.719,21.012,15.712,31.306c3.419,5.89,7.046,11.716,10.757,17.51c-2.088-2.394-3.972-4.518-4.267-4.786
			c-8.271-7.54-28.682-17.245-39.556-11.02c-7.837,4.485-9.078,14.651-4.038,21.696c5.146,7.196,15.729,9.799,24.084,10.02
			c8.478,0.223,24.661-6.249,28.921-8.021c1.447,2.209,2.866,4.43,4.321,6.632c6.982,10.568,13.995,21.084,20.555,31.611
			c2.316,3.707,4.458,7.443,6.617,11.175c-1.859-2.123-3.439-3.896-3.708-4.142c-8.269-7.539-28.68-17.245-39.555-11.02
			c-7.835,4.486-9.078,14.653-4.038,21.698c5.147,7.195,15.728,9.798,24.084,10.018
			C201.963,389.945,216.954,384.104,222.024,382.026z"/>
		<path style="opacity:0.3;" d="M109.183,213.045c9.393,2.839,31.179-0.249,31.194-0.253c0.226-0.032-6.394-13.74-6.911-14.558
			c-5.986-9.455-23.108-24.206-35.243-21.074c-8.741,2.258-12.624,11.736-9.623,19.862
			C91.664,205.321,101.182,210.625,109.183,213.045z"/>
		<path style="opacity:0.3;" d="M330.684,191.582c0.207,0.098,2.247-14.989,2.267-15.956c0.224-11.188-5.92-32.937-17.769-37.018
			c-8.535-2.941-17.003,2.823-18.983,11.255c-2.023,8.612,2.991,18.287,8.329,24.719
			C310.795,182.133,330.669,191.574,330.684,191.582z"/>
		<path style="opacity:0.3;" d="M222.024,382.026c2.094,3.887,4.201,7.776,6.054,11.639c1.206,2.666,2.553,5.148,3.615,7.892
			c1.11,2.694,2.207,5.362,3.296,8.004c1.906,5.165,3.907,10.484,5.641,15.57c1.234,3.527,2.343,6.912,3.471,10.318
			c-2.26-3.718-6.839-10.904-7.29-11.46c-7.031-8.705-25.736-21.391-37.43-16.884c-8.423,3.247-11.193,13.107-7.278,20.835
			c3.998,7.892,14.063,12.068,22.289,13.552c9.056,1.631,28.114-3.11,30.491-3.719c1.846,5.643,3.589,11.15,5.15,16.372
			c2.797,9.275,5.16,17.774,7.151,25.318h8.318c-2.3-8.094-5.068-17.348-8.381-27.534c-1.852-5.738-3.947-11.833-6.155-18.071
			c1.385-0.75,9.24-5.069,16.066-10.024c7.188,6.14,24.469,12.271,26.704,13.048c-1.573,5.725-3.157,11.28-4.736,16.496
			c-2.912,9.706-5.753,18.451-8.35,26.085h8.404c2.241-7.174,4.635-15.184,7.08-24.024c1.62-5.807,3.238-12.045,4.835-18.467
			c2.399,0.211,22.015,1.824,30.702-1.253c7.877-2.791,17.137-8.537,19.809-16.97c2.617-8.258-1.707-17.544-10.546-19.387
			c-12.267-2.561-28.68,12.977-34.214,22.703c-0.328,0.573-3.174,7.194-4.901,11.402c0.639-2.627,1.289-5.171,1.914-7.883
			c1.273-5.354,2.386-10.736,3.602-16.523c0.491-2.814,0.985-5.658,1.484-8.529c0.557-2.836,0.784-5.904,1.193-8.883
			c0.802-6.925,1.28-13.984,1.602-21.105c4.693,1.102,21.412,4.778,29.66,3.205c8.208-1.566,18.233-5.842,22.151-13.774
			c3.836-7.767,0.971-17.599-7.487-20.762c-11.738-4.388-30.315,8.485-37.259,17.259c-0.434,0.547-4.708,7.403-6.985,11.216
			c0.161-4.283,0.343-8.556,0.364-12.893c0.065-12.521-0.259-25.195-0.527-37.842c-0.085-3.875-0.121-7.733-0.173-11.599
			c1.664,0.411,21.444,5.21,30.681,3.448c8.21-1.565,18.233-5.842,22.152-13.773c3.836-7.767,0.97-17.6-7.487-20.762
			c-11.738-4.389-30.316,8.484-37.26,17.258c-0.523,0.661-6.659,10.536-8.098,13.123c-0.11-8.511-0.143-16.994,0.165-25.358
			c0.41-11.542,1.449-22.844,3.266-33.717c0.776,0.194,21.395,5.295,30.856,3.491c8.211-1.566,18.234-5.842,22.153-13.775
			c3.836-7.765,0.97-17.599-7.487-20.76c-11.738-4.389-30.315,8.483-37.259,17.258c-0.455,0.576-5.137,8.092-7.281,11.721
			c-0.37-0.139-0.303-0.113-0.672-0.252c2.087-11.625,5.572-22.623,9.342-32.757c2.172-5.874,4.577-11.367,7.038-16.659
			c3.743,1.343,20.916,7.296,29.609,6.614c8.333-0.655,18.765-3.804,23.532-11.256c4.666-7.299,2.896-17.388-5.162-21.459
			c-11.185-5.652-31.063,5.103-38.928,13.061c-0.428,0.434-4.29,5.315-7.052,8.91c1.147-2.371,2.287-4.839,3.43-7.091
			c4.274-8.458,8.707-15.939,12.688-22.534c2.296-3.731,4.443-7.061,6.485-10.154c4.362-0.597,21.906-3.226,29.175-7.755
			c7.092-4.42,14.901-12.023,15.696-20.834c0.777-8.628-5.442-16.765-14.47-16.665c-12.53,0.139-25.217,18.843-28.531,29.532
			c-0.284,0.924-3.104,15.884-2.876,15.855c0,0,0.212-0.029,0.263-0.036c-2.026,2.938-4.163,6.109-6.429,9.624
			c-4.132,6.521-8.742,13.927-13.217,22.326c-4.492,8.38-9.139,17.614-13.152,27.779c-4.038,10.185-7.767,21.104-10.152,32.851
			c-0.028,0.133-0.038,0.276-0.064,0.408c-0.37-3.652-1.744-13.832-1.939-14.602c-2.738-10.849-14.407-30.205-26.913-31.013
			c-9.009-0.58-15.654,7.214-15.338,15.871c0.324,8.84,7.714,16.849,14.561,21.642c7.723,5.405,27.816,9.141,29.418,9.432
			c-2.17,11.209-3.486,22.887-4.167,34.78c-0.397,6.798-0.586,13.658-0.687,20.538c-0.42-3.148-0.821-5.959-0.919-6.347
			c-2.74-10.85-14.408-30.205-26.913-31.013c-9.01-0.581-15.655,7.213-15.338,15.87c0.323,8.841,7.714,16.849,14.561,21.642
			c6.948,4.863,24.016,8.391,28.546,9.265c-0.011,2.64-0.052,5.276-0.053,7.915c-0.008,12.665,0.041,25.305-0.293,37.703
			c-0.115,4.371-0.39,8.67-0.648,12.971c-0.378-2.796-0.718-5.147-0.807-5.5c-2.739-10.85-14.407-30.205-26.914-31.012
			c-9.01-0.582-15.655,7.212-15.337,15.87c0.324,8.839,7.715,16.848,14.562,21.641c6.63,4.642,22.355,8.04,27.733,9.103
			c-0.399,4.397-0.789,8.802-1.372,13.046c-0.465,2.889-0.712,5.702-1.338,8.578c-0.562,2.859-1.118,5.689-1.668,8.493
			c-1.259,5.361-2.524,10.9-3.883,16.099c-0.919,3.623-1.859,7.058-2.798,10.522c0.167-4.349,0.31-12.868,0.242-13.581
			c-0.707-7.401-4.755-19.09-10.975-26.905c-0.098-1.094-0.291-2.174-0.591-3.233c-2.375-8.33-11.104-13.69-19.493-10.352
			c-11.645,4.631-16.762,26.646-16.013,37.811c0.044,0.658,1.322,7.75,2.203,12.213c-0.917-2.545-1.777-5.024-2.753-7.632
			c-1.893-5.169-3.934-10.271-6.11-15.769c-1.144-2.617-2.301-5.26-3.469-7.931c-1.1-2.674-2.604-5.356-3.904-8.067
			c-3.153-6.22-6.648-12.369-10.307-18.488c4.521-1.669,20.494-7.826,26.505-13.689c5.983-5.834,11.985-14.931,10.878-23.707
			c-1.085-8.594-8.898-15.214-17.698-13.187c-12.211,2.815-20.605,23.799-21.556,34.949c-0.059,0.696,0.158,8.773,0.363,13.208
			c-2.23-3.661-4.434-7.325-6.808-10.954c-6.854-10.478-14.117-20.87-21.316-31.272c-2.208-3.185-4.367-6.384-6.544-9.578
			c1.615-0.577,20.761-7.486,27.492-14.051c5.984-5.835,11.985-14.932,10.878-23.709c-1.084-8.593-8.899-15.214-17.697-13.185
			c-12.212,2.815-20.605,23.799-21.556,34.949c-0.071,0.84,0.258,12.461,0.486,15.412c-4.788-7.037-9.495-14.094-13.852-21.241
			c-6.026-9.852-11.393-19.851-15.876-29.924c0.753-0.266,20.766-7.386,27.662-14.111c5.984-5.834,11.985-14.931,10.878-23.708
			c-1.085-8.594-8.9-15.214-17.697-13.185c-12.212,2.815-20.606,23.799-21.556,34.947c-0.064,0.733,0.178,9.593,0.393,13.801
			c-0.383,0.088-0.313,0.071-0.697,0.159c-4.674-10.849-7.834-21.946-10.281-32.481c-1.429-6.097-2.455-12.006-3.322-17.777
			c3.864-0.943,21.471-5.452,28.346-10.818c6.589-5.143,13.553-13.525,13.417-22.37c-0.135-8.661-7.176-16.101-16.143-15.05
			c-12.446,1.456-23.092,21.393-25.263,32.37c-0.119,0.596-0.646,6.798-0.968,11.32c-0.351-2.609-0.762-5.298-1.049-7.805
			c-1.103-9.412-1.532-18.099-1.85-25.796c-0.146-4.378-0.188-8.339-0.192-12.046c3.308-2.905,16.491-14.775,20.055-22.562
			c3.477-7.6,5.795-18.249,1.598-26.036c-4.111-7.625-13.788-10.982-21.263-5.919c-10.375,7.029-10.637,29.627-7.505,40.371
			c0.272,0.928,6.174,14.961,6.349,14.811c0,0,0.161-0.141,0.199-0.175c-0.07,3.567-0.101,7.394-0.053,11.573
			c0.15,7.718,0.391,16.44,1.293,25.913c0.876,9.468,2.094,19.732,4.355,30.424c2.251,10.723,5.164,21.887,9.655,33.002
			c0.052,0.125,0.12,0.249,0.171,0.374c-2.323-2.842-9.085-10.574-9.67-11.109c-8.27-7.539-28.681-17.244-39.556-11.02
			c-7.836,4.486-9.079,14.652-4.038,21.698c5.147,7.195,15.729,9.798,24.084,10.017c9.422,0.25,28.243-7.721,29.739-8.361
			c4.374,10.546,9.719,21.012,15.712,31.306c3.419,5.89,7.046,11.716,10.757,17.51c-2.088-2.394-3.972-4.518-4.267-4.786
			c-8.271-7.54-28.682-17.245-39.556-11.02c-7.837,4.485-9.078,14.651-4.038,21.696c5.146,7.196,15.729,9.799,24.084,10.02
			c8.478,0.223,24.661-6.249,28.921-8.021c1.447,2.209,2.866,4.43,4.321,6.632c6.982,10.568,13.995,21.084,20.555,31.611
			c2.316,3.707,4.458,7.443,6.617,11.175c-1.859-2.123-3.439-3.896-3.708-4.142c-8.269-7.539-28.68-17.245-39.555-11.02
			c-7.835,4.486-9.078,14.653-4.038,21.698c5.147,7.195,15.728,9.798,24.084,10.018
			C201.963,389.945,216.954,384.104,222.024,382.026z"/>
	</g>
</g>
<g id="Clouds">
	<path style="fill:none;stroke:#263238;stroke-miterlimit:10;" d="M119.813,50.316c0,0-4.92-12.652-22.493-14.058
		S77.64,53.831,74.125,56.642c-3.514,2.812-10.543-4.92-17.572-2.109c-7.029,2.812-9.84,9.138-9.84,9.138s-6.326-2.812-10.543-2.109
		c-4.217,0.703-9.138,7.029-9.138,7.029H145.82c0,0,0-11.949-8.435-16.167c-8.435-4.217-11.949,4.92-14.058,4.217
		S119.813,50.316,119.813,50.316z"/>
	<path style="fill:none;stroke:#263238;stroke-miterlimit:10;" d="M460.51,143.578c0,0-4.185-10.762-19.133-11.958
		c-14.948-1.196-16.741,14.948-19.731,17.339c-2.989,2.392-8.969-4.185-14.948-1.794c-5.979,2.392-8.371,7.773-8.371,7.773
		s-5.381-2.392-8.969-1.794c-3.587,0.598-7.773,5.979-7.773,5.979h101.046c0,0,0-10.164-7.175-13.752
		c-7.175-3.588-10.164,4.185-11.958,3.587S460.51,143.578,460.51,143.578z"/>
	<path style="fill:none;stroke:#263238;stroke-miterlimit:10;" d="M127.674,341.082c0,0-5.895-15.159-26.95-16.844
		c-21.054-1.684-23.581,21.055-27.792,24.423c-4.211,3.369-12.633-5.895-21.054-2.527c-8.422,3.369-11.791,10.948-11.791,10.948
		s-7.58-3.369-12.633-2.527c-5.053,0.842-10.948,8.422-10.948,8.422h142.328c0,0,0-14.317-10.106-19.37
		c-10.106-5.053-14.317,5.895-16.844,5.053C129.359,347.82,127.674,341.082,127.674,341.082z"/>
</g>
<g id="Icon_3">
	<g>
		<circle style="fill:none;stroke:#263238;stroke-miterlimit:10;" cx="433.308" cy="248.789" r="47.258"/>
		<ellipse style="fill:none;stroke:#263238;stroke-miterlimit:10;" cx="433.308" cy="248.789" rx="27.17" ry="47.258"/>
		<line style="fill:none;stroke:#263238;stroke-miterlimit:10;" x1="433.308" y1="201.531" x2="433.308" y2="296.047"/>
		<line style="fill:none;stroke:#263238;stroke-miterlimit:10;" x1="405.571" y1="210.718" x2="460.761" y2="210.718"/>
		<line style="fill:none;stroke:#263238;stroke-miterlimit:10;" x1="405.571" y1="287.423" x2="460.761" y2="287.423"/>
		<line style="fill:none;stroke:#263238;stroke-miterlimit:10;" x1="389.669" y1="229.583" x2="476.663" y2="229.583"/>
		<line style="fill:none;stroke:#263238;stroke-miterlimit:10;" x1="389.669" y1="267.311" x2="476.663" y2="267.311"/>
		<line style="fill:none;stroke:#263238;stroke-miterlimit:10;" x1="386.239" y1="248.447" x2="480.093" y2="248.447"/>
	</g>
</g>
<g id="Icon_2">
	<g>
		<path style="fill:none;stroke:#263238;stroke-miterlimit:10;" d="M423.559,64.728H312.87c-3.852,0-6.974-3.123-6.974-6.975V45.46
			c0-3.852,3.123-6.975,6.974-6.975h110.689c3.852,0,6.974,3.123,6.974,6.975v12.294C430.533,61.605,427.411,64.728,423.559,64.728z
			"/>
		<line style="fill:none;stroke:#263238;stroke-miterlimit:10;" x1="400.15" y1="38.396" x2="400.15" y2="65.237"/>
		<path style="fill:none;stroke:#263238;stroke-miterlimit:10;" d="M427.651,59.137l-7.155-5.367
			c0.596-1.163,0.939-2.477,0.939-3.871c0-4.703-3.826-8.529-8.529-8.529c-4.703,0-8.529,3.826-8.529,8.529
			c0,4.703,3.826,8.53,8.529,8.53c2.228,0,4.253-0.866,5.774-2.27l7.171,5.379c0.271,0.202,0.586,0.3,0.899,0.3
			c0.456,0,0.906-0.207,1.201-0.6C428.448,60.575,428.314,59.635,427.651,59.137z M412.905,55.429c-3.049,0-5.529-2.48-5.529-5.53
			c0-3.049,2.48-5.529,5.529-5.529c3.049,0,5.529,2.48,5.529,5.529C418.435,52.949,415.954,55.429,412.905,55.429z"/>
	</g>
</g>
<g id="Icon_1">
	<path style="fill:none;stroke:#263238;stroke-miterlimit:10;" d="M106.958,160.839l-28.305-21.23
		c2.356-4.602,3.713-9.797,3.713-15.312c0-18.605-15.136-33.74-33.74-33.74c-18.605,0-33.74,15.135-33.74,33.74
		s15.136,33.742,33.74,33.742c8.815,0,16.825-3.426,22.842-8.981l28.367,21.277c1.07,0.8,2.318,1.186,3.558,1.186
		c1.804,0,3.585-0.819,4.752-2.374C110.11,166.525,109.577,162.807,106.958,160.839z M48.625,146.171
		c-12.061,0-21.873-9.812-21.873-21.875c0-12.061,9.812-21.873,21.873-21.873c12.06,0,21.873,9.812,21.873,21.873
		C70.498,136.358,60.686,146.171,48.625,146.171z"/>
</g>
<g id="Question_Mark">
	<g>
		<g>
			<path style="fill:#263238;stroke:#263238;stroke-miterlimit:10;" d="M246.917,194.246c-54.149,0-100.096,30.671-116.355,73.218
				c-0.304,0.794-0.04,1.697,0.634,2.216l45.533,35.006c0.337,0.259,0.75,0.399,1.175,0.399h7.296c1.1,0,1.968-0.917,1.922-2.016
				c-0.023-0.539-0.036-1.08-0.036-1.624c0-28.88,26.787-52.292,59.831-52.292c33.044,0,59.831,23.412,59.831,52.292
				c0,28.88-26.787,52.292-59.831,52.292c-5.216,0-10.271-0.595-15.094-1.692c-0.459-0.104-0.927-0.16-1.398-0.16l0,0
				c-4.491,0-7.596,4.49-6.011,8.692l6.646,17.621v40.379h73.092v-16.693c0-3.335,1.831-6.426,4.797-7.949
				c36.27-18.621,60.621-53.067,60.621-92.489C369.571,242.241,314.657,194.246,246.917,194.246z"/>
			<rect x="231.061" y="426.486" style="fill:#263238;stroke:#263238;stroke-miterlimit:10;" width="73.092" height="52.977"/>
		</g>
		<g>
			<path style="fill:#92E3A9;stroke:#263238;stroke-miterlimit:10;" d="M359.573,301.446c0-59.205-54.914-107.199-122.654-107.199
				c-54.094,0-100.002,30.608-116.305,73.088c-0.328,0.854,0.003,1.824,0.776,2.315l52.743,33.46
				c1.282,0.813,2.956-0.108,2.956-1.626l0-0.037c0-28.88,26.787-52.292,59.831-52.292c33.044,0,59.831,23.412,59.831,52.292
				s-26.787,52.292-59.831,52.292c-2.89,0-5.73-0.183-8.509-0.532c-3.856-0.485-7.274,2.476-7.274,6.363v18.629h-0.073v40.379
				h73.092v-16.693c0-3.335,1.831-6.426,4.797-7.948C335.221,375.314,359.573,340.868,359.573,301.446z"/>
			<rect x="221.062" y="426.486" style="fill:#92E3A9;stroke:#263238;stroke-miterlimit:10;" width="73.092" height="52.977"/>
		</g>
	</g>
</g>
<g id="Character">
	<g>
		<path style="fill:#FFFFFF;stroke:#263238;stroke-miterlimit:10;" d="M230.497,90.795c0,0-7.219,3.158-10.468,4.692
			c-3.249,1.534-5.775,2.166-5.775,2.166l5.505,2.888l15.521-2.436L230.497,90.795z"/>
		<path style="fill:none;stroke:#263238;stroke-miterlimit:10;" d="M207.486,94.134c0,0-1.715-1.624-2.436-3.339
			c-0.722-1.715-2.166-0.902-2.166,0.361c0,1.263,0.812,3.249,1.173,3.429c0.361,0.18,4.151,0.812,4.151,0.812L207.486,94.134z"/>
		<path style="fill:#263238;stroke:#263238;stroke-miterlimit:10;" d="M233.379,101.787l1.528,8.66c0,0-3.009,17.193-3.582,27.078
			c-0.573,9.886-1.003,16.333-0.43,18.912c0.573,2.579,8.023,27.652,8.023,27.652s-1.289,1.576-1.289,2.006
			c0,0.43-0.143,2.006-0.143,2.006s-2.006,2.006-3.582,3.152c-1.576,1.146-4.871,2.149-4.298,3.295c0.573,1.146,4.441,0,8.74,0
			c4.298,0,7.307,0.573,8.883-0.573c1.576-1.146,0.143-5.444,0.143-5.444s0.143-3.009,0.287-3.868
			c0.143-0.86-1.863-5.301-1.719-6.59c0.143-1.289-3.439-27.079-3.439-27.079l7.164-26.505c0,0,11.748,29.801,13.181,31.233
			c1.433,1.433,20.775,26.076,20.775,26.076s-1.289,1.433-0.86,2.149c0.43,0.716,1.146,1.576,1.146,1.576s-1.433,3.009-2.292,4.298
			c-0.86,1.29-3.295,2.006-2.866,2.865c0.43,0.86,4.871,1.003,6.018,0.716c1.146-0.286,5.731-5.301,7.02-6.304
			c1.289-1.003,3.725-2.865,3.725-4.155c0-1.289-2.436-2.865-2.579-3.295c-0.143-0.43-0.43-2.292-1.289-2.865
			c-0.86-0.573-2.006-1.146-2.579-1.433c-0.573-0.287-14.9-25.216-14.9-25.216s-6.447-38.397-8.167-42.838
			c-1.719-4.441-11.489-17.205-11.489-17.205L233.379,101.787z"/>
		<path style="fill:#92E3A9;stroke:#263238;stroke-miterlimit:10;" d="M217.783,78.016c0,0,1.887,8.678,4.276,10.942
			c2.39,2.264,7.169,2.893,7.169,2.893l4.151,9.936c0,0,15.092-4.654,21.13-11.697c0,0-7.043-11.194-12.2-18.363
			c-5.157-7.169-3.018-8.427-10.313-12.703c-7.295-4.276-13.206,1.635-13.206,1.635S213.255,60.911,217.783,78.016z"/>
		<path style="fill:#263238;stroke:#263238;stroke-miterlimit:10;" d="M208.87,36.266c0,0-1.472-2.984-11.031-1.475
			c-9.559,1.509-12.074,9.181-12.451,12.2c-0.377,3.018-0.037,2.858-0.918,3.613c-0.88,0.755-5.031,0.251-4.276,4.653
			c0.755,4.402,5.911,1.887,6.666,3.396c0.755,1.509,1.887,2.515,4.025,2.641c2.138,0.126,4.15-2.39,4.402-3.396
			c0.251-1.006,2.39-1.887,6.163,0.377c3.773,2.264,8.804,6.288,14.086,1.886C220.819,55.761,213.901,40.165,208.87,36.266z"/>
		<g>
			<path style="fill:#FFFFFF;stroke:#263238;stroke-miterlimit:10;" d="M189.113,55.031c0,0,0.792,2.604,1.585,3.962
				c0.792,1.358,3.735,2.604,3.849,4.641c0.113,2.037-0.566,3.396,0,3.735c0.566,0.34,3.283-0.453,3.283-0.453
				s5.999,3.962,7.471,3.396c1.471-0.566,4.301-4.528,4.301-4.528l6.421,4.56l1.761,7.672l2.264-3.647c0,0-4.276-5.157-2.767-9.433
				c1.509-4.276,1.509-4.276,1.509-4.276s-9.64-1.328-10.885-2.913c-1.245-1.585-3.509-5.546-5.546-6.112
				c-2.038-0.566-2.83,2.264-2.604,2.943c0.226,0.679-3.396,0.566-5.66-0.34c-2.264-0.906-1.698-0.679-2.264-0.906
				C191.264,53.106,189.113,54.012,189.113,55.031z"/>
			<path style="fill:none;stroke:#263238;stroke-miterlimit:10;" d="M193.415,59.672c0,0-0.113-2.037,1.585-2.264"/>
			<path style="fill:#263238;" d="M196.521,60.361c0.555,0.456,0.78,1.101,0.503,1.439c-0.278,0.338-0.953,0.242-1.509-0.214
				c-0.555-0.456-0.78-1.101-0.503-1.439C195.291,59.809,195.966,59.905,196.521,60.361z"/>
			<path style="fill:none;stroke:#263238;stroke-miterlimit:10;" d="M200.773,67.029c0,0,0.679-0.453,0.113-2.264"/>
			<path style="fill:#FFFFFF;stroke:#263238;stroke-miterlimit:10;" d="M205.527,54.351c0,0,1.585,1.698,1.019,2.604
				c-0.566,0.906-1.132,1.245-1.132,1.245s1.471,1.472,1.585,2.377"/>
		</g>
		<path style="fill:#263238;stroke:#263238;stroke-miterlimit:10;" d="M200.747,49.855c0,0,5.585,3.647,8.528,8.196
			c2.943,4.55,11.355,4.31,14.324,1.805s3.521-4.92,5.813-4.344c2.292,0.576,7.785,2.446,11.372-0.179
			c3.586-2.626,0.893-7.865,4.54-6.914c3.647,0.951,8.042-0.167,10.498-3.981c2.456-3.814,4.345-10.338-2.544-18.854
			c-5.321-6.577-13.19-4.866-15.559-4.53c-2.369,0.336-1.593-2.275-9.328-2.275c-7.976,0-11.766,6.816-12.291,8.713
			c-0.525,1.897,1.638,3.19-4.546,1.07c-6.183-2.12-9.212,0.231-9.101,3.413c0.111,3.182-6.882,4.265-8.191,4.778"/>
		<g>
			<path style="fill:#8F8F8F;stroke:#263238;stroke-miterlimit:10;" d="M272.15,115.394c-0.286,0-0.577-0.034-0.867-0.105
				l-77.696-20.044c-1.366-0.334-2.202-1.712-1.868-3.078c0.334-1.366,1.712-2.203,3.078-1.868l78.215,17.924
				c1.951,0.477,3.146,2.446,2.669,4.397C275.273,114.281,273.786,115.394,272.15,115.394z"/>
		</g>
		<path style="fill:#FFFFFF;stroke:#263238;stroke-miterlimit:10;" d="M239.793,101.913l-2.39,1.761c0,0-1.132,1.887-2.012,2.516
			c-0.88,0.629-1.383,1.006-0.503,1.383c0.88,0.377,3.018-0.503,3.018-0.503s-0.755,3.27-0.126,3.522
			c0.629,0.251,2.012,0.377,2.39-0.126s1.006-0.755,1.006-0.755s0.377,0.503,2.641-0.126c2.264-0.629,2.39-4.528,2.641-6.289
			c0.251-1.761,10.313-23.896,10.942-26.789c0.629-2.893,0-4.654-0.88-5.157c-0.88-0.503-26.035-8.301-29.053-8.553
			c-3.018-0.251-6.288,4.025-4.528,8.175c1.761,4.15,8.804,5.534,10.691,5.785c1.887,0.252,12.954,1.635,12.954,1.635
			s-2.264,11.445-2.767,15.596C243.315,98.14,241.302,100.781,239.793,101.913z"/>
		<g>
			<path style="fill:#FFFFFF;stroke:#263238;stroke-miterlimit:10;" d="M203.606,96.029c0,0-0.451,3.249-0.271,3.7
				c0.18,0.451,1.624,1.263,1.985-0.09c0.361-1.354,0.451-3.61-0.18-3.971C204.508,95.307,204.147,95.127,203.606,96.029z"/>
			<path style="fill:#FFFFFF;stroke:#263238;stroke-miterlimit:10;" d="M205.957,97.41c0,0,0.213,3.273,0.481,3.678
				c0.268,0.406,1.846,0.91,1.926-0.489c0.081-1.398-0.286-3.626-0.977-3.853C206.695,96.521,206.305,96.417,205.957,97.41z"/>
			<path style="fill:#FFFFFF;stroke:#263238;stroke-miterlimit:10;" d="M208.303,97.771c0,0,0.213,3.273,0.481,3.678
				c0.268,0.405,1.846,0.91,1.926-0.489c0.081-1.399-0.286-3.626-0.977-3.853C209.042,96.882,208.652,96.778,208.303,97.771z"/>
			<path style="fill:#FFFFFF;stroke:#263238;stroke-miterlimit:10;" d="M210.879,98.258c0,0,0.181,2.785,0.409,3.13
				c0.228,0.345,1.571,0.774,1.639-0.416s-0.243-3.086-0.832-3.279C211.507,97.501,211.175,97.413,210.879,98.258z"/>
		</g>
		<g>
			<path style="fill:#8F8F8F;stroke:#263238;stroke-miterlimit:10;" d="M196.39,96.248l0.221-4.298l-3.005-4.44
				c-1.956-5.448-14.648-10.086-23.673-12.3c-9.025-2.214-19.699-0.721-24.39,1.663c-4.692,2.384-5.773,3.82-5.773,3.82
				l-0.293,5.702c-1.282,6.473,10.403,14.241,26.099,17.349c15.696,3.108,29.46,0.38,30.741-6.093
				C196.41,97.191,196.428,96.721,196.39,96.248z M182.815,96.97c-9.209,1.374-17.615,0.359-24.937-2.837
				c-5.531-2.414-10.817-6.255-13.074-7.991c1.954-4.507,12.739-6.216,25.009-3.786c11.621,2.301,20.583,7.526,21.577,12.246
				C189.894,95.376,187.297,96.301,182.815,96.97z"/>
			<path style="fill:#FFFFFF;stroke:#263238;stroke-miterlimit:10;" d="M170.512,74.602c-15.696-3.108-29.459-0.38-30.741,6.093
				c-1.282,6.473,10.403,14.24,26.099,17.349c15.696,3.108,29.459,0.38,30.741-6.093C197.893,85.477,186.208,77.71,170.512,74.602z
				 M191.729,90.494c-1.006,5.08-12.318,7.119-25.266,4.555c-12.948-2.564-22.63-8.76-21.624-13.84
				c1.006-5.08,12.318-7.119,25.266-4.555C183.054,79.218,192.735,85.414,191.729,90.494z"/>
		</g>
	</g>
</g>
<g id="Floor">
	<g>
		<line style="fill:none;stroke:#263238;stroke-miterlimit:10;" x1="387.431" y1="479.463" x2="489.805" y2="479.463"/>
		<line style="fill:none;stroke:#263238;stroke-miterlimit:10;" x1="16.293" y1="479.463" x2="379.201" y2="479.463"/>
	</g>
</g>
</svg>
